<svg width="255" height="220" viewBox="0 0 255 220" fill="none" xmlns="http://www.w3.org/2000/svg">
<g clip-path="url(#clip0_285_2175)">
<path d="M101.867 45.6229H100.938V16.7252C100.938 14.5288 100.557 12.354 99.8172 10.3248C99.0773 8.29557 97.9927 6.45179 96.6253 4.89871C95.258 3.34563 93.6348 2.11366 91.8483 1.27314C90.0618 0.432615 88.1471 1.86095e-06 86.2134 0H32.3128C28.4076 -8.45616e-06 24.6623 1.7621 21.9009 4.89867C19.1395 8.03525 17.5881 12.2894 17.5881 16.7252V175.26C17.5881 177.457 17.969 179.632 18.709 181.661C19.449 183.69 20.5336 185.534 21.9009 187.087C23.2682 188.64 24.8914 189.872 26.6779 190.712C28.4644 191.553 30.3791 191.986 32.3128 191.986H86.2134C90.1186 191.986 93.8639 190.223 96.6253 187.087C99.3867 183.95 100.938 179.696 100.938 175.26V66.1928H101.867V45.6229Z" fill="#3F3D56"/>
<path d="M86.8075 4.35132H79.7717C80.0953 5.25236 80.2188 6.22995 80.1314 7.19798C80.044 8.166 79.7483 9.09476 79.2704 9.90242C78.7926 10.7101 78.1472 11.3719 77.3911 11.8295C76.635 12.2871 75.7915 12.5265 74.9348 12.5265H44.0558C43.1991 12.5265 42.3555 12.2871 41.5995 11.8295C40.8434 11.3719 40.198 10.7101 39.7201 9.90243C39.2423 9.09476 38.9466 8.16601 38.8592 7.19798C38.7717 6.22995 38.8953 5.25236 39.2188 4.35132H32.6474C31.2033 4.35132 29.7734 4.67439 28.4393 5.30208C27.1052 5.92977 25.8929 6.84979 24.8718 8.00961C23.8508 9.16943 23.0408 10.5463 22.4882 12.0617C21.9356 13.5771 21.6511 15.2013 21.6511 16.8415V175.144C21.6511 176.784 21.9356 178.408 22.4882 179.924C23.0408 181.439 23.8507 182.816 24.8718 183.976C25.8929 185.136 27.1051 186.056 28.4393 186.683C29.7734 187.311 31.2033 187.634 32.6473 187.634H86.8075C88.2516 187.634 89.6815 187.311 91.0156 186.683C92.3497 186.056 93.562 185.136 94.583 183.976C95.6041 182.816 96.4141 181.439 96.9667 179.924C97.5193 178.408 97.8038 176.784 97.8038 175.144V16.8415C97.8038 15.2013 97.5193 13.5771 96.9667 12.0617C96.4141 10.5463 95.6041 9.16943 94.583 8.00961C93.562 6.84979 92.3497 5.92977 91.0156 5.30208C89.6815 4.67439 88.2516 4.35132 86.8075 4.35132Z" fill="white"/>
<path d="M119.143 192.013H0.311893C0.229173 192.013 0.149842 191.976 0.091351 191.909C0.0328598 191.843 0 191.753 0 191.659C0 191.565 0.0328598 191.475 0.091351 191.408C0.149842 191.342 0.229173 191.304 0.311893 191.304H119.143C119.226 191.304 119.305 191.342 119.363 191.408C119.422 191.475 119.455 191.565 119.455 191.659C119.455 191.753 119.422 191.843 119.363 191.909C119.305 191.976 119.226 192.013 119.143 192.013Z" fill="#CBCBCB"/>
<path d="M59.7273 122.463C74.2734 122.463 86.0654 109.069 86.0654 92.5464C86.0654 76.024 74.2734 62.6299 59.7273 62.6299C45.1811 62.6299 33.3892 76.024 33.3892 92.5464C33.3892 109.069 45.1811 122.463 59.7273 122.463Z" fill="#5CB85C"/>
<path d="M57.1175 103.959C56.5249 103.96 55.9481 103.742 55.4741 103.338L55.4447 103.313L49.2549 97.935C48.9682 97.6854 48.7276 97.3741 48.5468 97.0188C48.3661 96.6636 48.2487 96.2714 48.2014 95.8646C48.1541 95.4578 48.1778 95.0444 48.2712 94.6481C48.3645 94.2517 48.5257 93.8801 48.7454 93.5545C48.9652 93.2288 49.2393 92.9556 49.5521 92.7503C49.8648 92.545 50.2101 92.4116 50.5682 92.3579C50.9263 92.3042 51.2903 92.3311 51.6392 92.4371C51.9882 92.5431 52.3154 92.7262 52.602 92.9758L56.6113 96.468L66.0854 82.4288C66.3051 82.1033 66.5791 81.8301 66.8917 81.6249C67.2043 81.4197 67.5495 81.2864 67.9074 81.2327C68.2654 81.179 68.6292 81.2059 68.978 81.3119C69.3268 81.4179 69.6538 81.6009 69.9404 81.8504L69.9412 81.8511L69.8824 81.9438L69.9428 81.8511C70.5209 82.3558 70.8991 83.1003 70.9945 83.9214C71.0898 84.7425 70.8945 85.573 70.4514 86.2307L59.3078 102.737C59.05 103.117 58.7185 103.425 58.3391 103.636C57.9596 103.847 57.5424 103.956 57.1199 103.955L57.1175 103.959Z" fill="white"/>
<path d="M216.53 194.953C216.85 194.365 217.227 193.819 217.654 193.326C217.831 193.118 218.016 192.923 218.208 192.732C219.372 191.555 220.792 190.751 222.321 190.404C223.849 190.056 225.432 190.177 226.906 190.755C228.38 191.332 229.691 192.345 230.706 193.689C231.721 195.034 232.402 196.661 232.68 198.403C233.967 193 230.618 187.678 227.251 183.589C223.883 179.503 220.033 175.019 220.053 169.419C220.062 166.303 221.404 163.523 223.43 161.462C223.493 161.4 223.555 161.338 223.619 161.277C226.068 158.893 229.219 157.646 232.442 157.785C238.43 158.149 243.658 162.721 247.289 168.143C253.134 176.867 255.695 189.114 251.603 199.046C248.004 207.781 240.329 212.968 232.495 217.138C231.401 217.72 230.31 218.285 229.22 218.833C229.213 218.835 229.205 218.841 229.198 218.843C229.145 218.869 229.093 218.895 229.044 218.922C228.819 219.035 228.594 219.147 228.371 219.259L228.474 219.335L228.796 219.572C228.685 219.495 228.574 219.421 228.463 219.344C228.429 219.321 228.394 219.299 228.361 219.276C224.514 216.653 220.613 213.879 217.955 209.786C215.198 205.535 214.09 199.447 216.53 194.953Z" fill="#CFEACF"/>
<path d="M242.199 185.082C243.051 187.283 243.616 189.614 243.876 192.001C244.081 194.129 244.004 196.28 243.648 198.382C242.884 202.702 241.218 206.751 238.79 210.187C236.958 212.796 234.843 215.131 232.495 217.138C231.401 217.72 230.31 218.285 229.22 218.832C229.213 218.834 229.205 218.84 229.198 218.843C229.145 218.869 229.093 218.895 229.044 218.922C228.819 219.034 228.594 219.147 228.371 219.258L228.474 219.335L228.796 219.572C228.685 219.495 228.574 219.421 228.463 219.344C228.429 219.321 228.394 219.299 228.361 219.275C229.208 215.911 229.332 212.366 228.724 208.936C228.116 205.506 226.793 202.291 224.866 199.562C222.928 196.867 220.457 194.73 217.655 193.325C217.831 193.118 218.016 192.922 218.208 192.732C219.287 193.295 220.321 193.966 221.297 194.736C224.786 197.475 227.406 201.418 228.769 205.98C229.986 210.119 230.138 214.567 229.207 218.8C229.4 218.657 229.594 218.51 229.783 218.363C233.367 215.618 236.67 212.321 239.158 208.277C241.305 204.86 242.678 200.895 243.157 196.733C243.634 192.187 242.633 187.716 240.846 183.659C238.872 179.319 236.386 175.306 233.455 171.731C230.511 168.057 227.183 164.807 223.544 162.052C223.462 161.989 223.405 161.892 223.384 161.783C223.362 161.673 223.379 161.558 223.43 161.462C223.469 161.375 223.537 161.308 223.619 161.277C223.661 161.265 223.704 161.264 223.746 161.274C223.788 161.283 223.828 161.304 223.862 161.333C224.311 161.674 224.757 162.017 225.197 162.371C228.861 165.318 232.189 168.771 235.104 172.65C237.921 176.389 240.484 180.544 242.199 185.082Z" fill="white"/>
<path d="M163.757 13.891C166.846 13.891 169.35 11.0464 169.35 7.53753C169.35 4.02862 166.846 1.18408 163.757 1.18408C160.667 1.18408 158.163 4.02862 158.163 7.53753C158.163 11.0464 160.667 13.891 163.757 13.891Z" fill="#CFEACF"/>
<path d="M233.309 98.9151C235.192 98.9151 236.719 97.1809 236.719 95.0415C236.719 92.9022 235.192 91.168 233.309 91.168C231.425 91.168 229.898 92.9022 229.898 95.0415C229.898 97.1809 231.425 98.9151 233.309 98.9151Z" fill="#CFEACF"/>
<path d="M133.503 109.543C135.386 109.543 136.913 107.809 136.913 105.669C136.913 103.53 135.386 101.796 133.503 101.796C131.62 101.796 130.093 103.53 130.093 105.669C130.093 107.809 131.62 109.543 133.503 109.543Z" fill="#CFEACF"/>
<path d="M135.429 220H254.26C254.342 220 254.422 219.963 254.48 219.896C254.539 219.83 254.572 219.74 254.572 219.646C254.572 219.552 254.539 219.462 254.48 219.395C254.422 219.329 254.342 219.292 254.26 219.292H135.429C135.346 219.292 135.267 219.329 135.208 219.395C135.15 219.462 135.117 219.552 135.117 219.646C135.117 219.74 135.15 219.83 135.208 219.896C135.267 219.963 135.346 220 135.429 220Z" fill="#CBCBCB"/>
<path d="M241.146 34.2345C241.302 32.9762 241.046 31.6966 240.427 30.6382C239.808 29.5797 238.868 28.816 237.787 28.4917C236.705 28.1674 235.556 28.3051 234.558 28.8786C233.56 29.4522 232.781 30.4218 232.37 31.6037L222.727 44.1604L225.557 53.1364L235.254 38.4643C235.887 38.6946 236.557 38.7645 237.216 38.669C237.875 38.5735 238.508 38.315 239.069 37.9117C239.631 37.5085 240.108 36.9702 240.467 36.3349C240.826 35.6996 241.057 34.9826 241.146 34.2345Z" fill="#FFB7B7"/>
<path d="M201.175 83.0932L233.184 44.2906L228.867 36.4939L188.719 75.0609L201.175 83.0932Z" fill="#3F3D56"/>
<path d="M194.031 59.517C200.232 59.517 205.259 53.807 205.259 46.7634C205.259 39.7198 200.232 34.0098 194.031 34.0098C187.83 34.0098 182.803 39.7198 182.803 46.7634C182.803 53.807 187.83 59.517 194.031 59.517Z" fill="#2F2E41"/>
<path d="M194.933 39.5586C197.349 36.7757 200.273 34.6281 203.499 33.2671C205.569 32.3958 207.823 31.8575 209.988 32.3523C212.153 32.8471 214.2 34.5481 214.804 36.9606C215.297 38.9332 214.788 41.0572 214.021 42.9142C213.255 44.7712 212.232 46.4932 211.612 48.4195C210.98 50.385 210.789 52.4987 211.059 54.5689C211.328 56.639 212.048 58.6 213.154 60.2738C214.26 61.9476 215.716 63.2812 217.39 64.1536C219.065 65.0259 220.905 65.4094 222.743 65.2693C220.616 65.5932 218.656 66.7285 216.577 67.3328C214.498 67.9371 212.044 67.8961 210.499 66.2044C208.864 64.4145 208.832 61.5043 208.911 58.9268C209.028 55.0955 209.146 51.2641 209.263 47.4327C209.323 45.4787 209.374 43.4622 208.754 41.6384C208.134 39.8147 206.659 38.2177 204.938 38.2343C203.633 38.2469 202.479 39.1445 201.433 40.0298C200.387 40.915 199.279 41.8595 197.98 41.9911C196.681 42.1228 195.197 41.0305 195.294 39.5529L194.933 39.5586Z" fill="#2F2E41"/>
<path d="M151.385 132.398C150.307 132.738 149.157 132.617 148.152 132.058C147.148 131.499 146.358 130.541 145.934 129.366C145.509 128.19 145.48 126.878 145.85 125.679C146.22 124.48 146.964 123.476 147.942 122.859L157.642 110.359L165.847 112.373L154.307 125.211C154.591 125.893 154.74 126.638 154.742 127.393C154.745 128.148 154.602 128.894 154.324 129.579C154.045 130.264 153.638 130.872 153.13 131.359C152.622 131.846 152.027 132.201 151.385 132.398H151.385Z" fill="#FFB7B7"/>
<path d="M183.299 87.6476L159.122 122.118L151.753 118.275L180.169 68.0237L183.299 87.6476Z" fill="#3F3D56"/>
<path d="M164.008 191.733L158.246 191.631L158.939 213.937H164.007L164.008 191.733Z" fill="#FFB7B7"/>
<path d="M165.3 212.058L155.319 212.058H155.319C153.632 212.058 152.014 212.819 150.821 214.174C149.628 215.529 148.958 217.366 148.958 219.282V219.517L165.3 219.518L165.3 212.058Z" fill="#2F2E41"/>
<path d="M202.158 185.817L195.864 190.407L208.454 207.612L212.719 204.502L202.158 185.817Z" fill="#FFB7B7"/>
<path d="M212.913 202.127L204.514 208.252L204.513 208.252C203.094 209.287 202.095 210.921 201.735 212.793C201.376 214.665 201.686 216.622 202.597 218.235L202.709 218.432L216.461 208.404L212.913 202.127Z" fill="#2F2E41"/>
<path d="M204.4 117.702C204.4 117.702 190.415 64.9417 185.921 64.2288C181.426 63.5158 174.185 77.7664 174.185 77.7664C164.796 91.3732 155.114 135.449 155.114 135.449C155.114 135.449 171.254 136.596 183.052 143.725C194.849 150.855 208.773 143.364 208.773 143.364L204.4 117.702Z" fill="#3F3D56"/>
<path opacity="0.1" d="M204.4 117.702C204.4 117.702 190.415 64.9417 185.921 64.2288C181.426 63.5158 176.024 77.911 176.024 77.911C171.345 99.8756 155.114 135.449 155.114 135.449C155.114 135.449 171.254 136.596 183.052 143.725C194.849 150.855 208.773 143.364 208.773 143.364L204.4 117.702Z" fill="black"/>
<path d="M192.926 101.916V128.428L195.673 166.832L209.396 195.882L202.847 201.196L184.133 173.563L176.732 146.125L165.108 206.864L156.375 206.156L162.44 121.942L173.949 98.2383L192.926 101.916Z" fill="#2F2E41"/>
<path d="M178.826 76.2736C174.459 81.2333 178.514 86.5474 178.514 86.5474L173.524 99.301L193.173 105.324L200.04 70.4713L195.361 64.803C186.004 64.4488 185.999 64.2285 185.999 64.2285C184.36 66.0508 178.826 76.2736 178.826 76.2736Z" fill="#5CB85C"/>
<path d="M200.831 66.8607C199.939 66.1125 198.924 65.5728 197.847 65.2729C196.77 64.9731 195.651 64.919 194.555 65.1138C193.459 65.3087 192.408 65.7486 191.463 66.408C190.518 67.0674 189.697 67.9333 189.049 68.9556C184.109 76.7679 179.541 89.383 185.835 105.116C195.94 130.379 204.733 143.311 208.308 143.31C208.464 143.312 208.619 143.284 208.768 143.228C210.968 142.38 214.15 138.151 214.726 134.424C214.932 133.09 214.883 131.231 213.478 129.955C209.444 126.29 202.201 114.877 199.941 99.8555C198.693 91.5551 201.114 83.9943 203.365 79.1132C204.316 77.0936 204.594 74.7524 204.149 72.5187C203.703 70.285 202.564 68.3085 200.94 66.9516L200.831 66.8607Z" fill="#3F3D56"/>
<path d="M194.608 58.2639C198.614 55.7769 200.086 50.0727 197.896 45.5232C195.707 40.9737 190.685 39.3016 186.679 41.7886C182.674 44.2756 181.202 49.9799 183.391 54.5294C185.581 59.0789 190.603 60.7509 194.608 58.2639Z" fill="#FFB7B7"/>
<path d="M179.02 49.3165H190.955L191.077 47.3702L191.689 49.3165H193.527L193.769 45.459L194.982 49.3165H198.538V49.1254C198.535 46.4399 197.595 43.8652 195.923 41.9662C194.251 40.0673 191.985 38.9991 189.62 38.9961H187.938C185.573 38.9991 183.307 40.0673 181.635 41.9662C179.963 43.8652 179.023 46.4398 179.02 49.1254V49.3165Z" fill="#2F2E41"/>
<path d="M196.735 56.3123L201.828 54.4352V40.3865H192.208L192.446 40.6566C195.76 44.4157 199.445 57.7525 196.735 56.3123Z" fill="#2F2E41"/>
</g>
<defs>
<clipPath id="clip0_285_2175">
<rect width="254.571" height="220" fill="white"/>
</clipPath>
</defs>
</svg>
