<svg width="22" height="21" viewBox="0 0 22 21" fill="none" xmlns="http://www.w3.org/2000/svg">
<path d="M19.4333 1.3125C19.1889 0.525 18.4556 0 17.7222 0H4.27778C3.42222 0 2.81111 0.525 2.56667 1.3125L0 9.1875V19.6875C0 20.3438 0.611111 21 1.22222 21H2.44444C3.17778 21 3.66667 20.3438 3.66667 19.6875V18.375H18.3333V19.6875C18.3333 20.3438 18.9444 21 19.5556 21H20.7778C21.3889 21 22 20.3438 22 19.6875V9.1875L19.4333 1.3125ZM4.64444 2.625H17.2333L18.5778 6.5625H3.42222L4.64444 2.625ZM19.5556 15.75H2.44444V9.1875H19.5556V15.75ZM5.5 10.5C6.47778 10.5 7.33333 11.4187 7.33333 12.4688C7.33333 13.5188 6.47778 14.4375 5.5 14.4375C4.52222 14.4375 3.66667 13.5188 3.66667 12.4688C3.66667 11.4187 4.52222 10.5 5.5 10.5ZM16.5 10.5C17.4778 10.5 18.3333 11.4187 18.3333 12.4688C18.3333 13.5188 17.4778 14.4375 16.5 14.4375C15.5222 14.4375 14.6667 13.5188 14.6667 12.4688C14.6667 11.4187 15.5222 10.5 16.5 10.5Z" fill="#5CB85C"/>
</svg>
