<svg width="22" height="20" viewBox="0 0 22 20" fill="none" xmlns="http://www.w3.org/2000/svg">
<path d="M12.5714 0C10.0708 0 7.67262 1.05357 5.90442 2.92893C4.13622 4.80429 3.14286 7.34783 3.14286 10H0L4.07524 14.3222L4.14857 14.4778L8.38095 10H5.2381C5.2381 5.7 8.51714 2.22222 12.5714 2.22222C16.6257 2.22222 19.9048 5.7 19.9048 10C19.9048 14.3 16.6257 17.7778 12.5714 17.7778C10.5495 17.7778 8.71619 16.9 7.39619 15.4889L5.90857 17.0667C6.78167 17.9978 7.81994 18.7364 8.9635 19.2398C10.1071 19.7433 11.3333 20.0016 12.5714 20C15.072 20 17.4702 18.9464 19.2384 17.0711C21.0066 15.1957 22 12.6522 22 10C22 7.34783 21.0066 4.80429 19.2384 2.92893C17.4702 1.05357 15.072 3.95203e-08 12.5714 0ZM11.5238 5.55555V11.1111L15.9762 13.9111L16.7829 12.4889L13.0952 10.1667V5.55555H11.5238Z" fill="#5CB85C"/>
</svg>
