<svg width="21" height="20" viewBox="0 0 21 20" fill="none" xmlns="http://www.w3.org/2000/svg">
<path d="M10 15.5L7 14M7 14L1 17V4L7 1M7 14V1M7 1L13 4M13 4L19 1V8.5M13 4V9.5M17 15V15.01M19.121 17.121C19.5406 16.7015 19.8265 16.1669 19.9423 15.585C20.0581 15.003 19.9988 14.3997 19.7717 13.8515C19.5447 13.3033 19.1602 12.8347 18.6668 12.505C18.1734 12.1753 17.5934 11.9994 17 11.9994C16.4066 11.9994 15.8266 12.1753 15.3332 12.505C14.8398 12.8347 14.4553 13.3033 14.2283 13.8515C14.0012 14.3997 13.9419 15.003 14.0577 15.585C14.1735 16.1669 14.4594 16.7015 14.879 17.121C15.297 17.54 16.004 18.166 17 19C18.051 18.11 18.759 17.484 19.121 17.121Z" stroke="#5CB85C" stroke-width="2" stroke-linecap="round" stroke-linejoin="round"/>
</svg>
