<svg width="19" height="10" viewBox="0 0 19 10" fill="none" xmlns="http://www.w3.org/2000/svg">
<path d="M7.80359 4.99993C7.80359 4.71969 7.99505 4.48809 8.24346 4.45143L8.31252 4.44638L17.2588 4.44682L14.0268 0.945805C13.8276 0.730097 13.8269 0.379612 14.0252 0.162973C14.2055 -0.0339699 14.4882 -0.0524979 14.6878 0.107824L14.745 0.161288L18.8503 4.60737C18.8766 4.63581 18.8994 4.66658 18.9187 4.69908C18.9242 4.70886 18.9298 4.71886 18.935 4.72907C18.9399 4.73782 18.9443 4.74691 18.9484 4.75609C18.9542 4.76946 18.9598 4.78327 18.9649 4.79736C18.969 4.80822 18.9725 4.81879 18.9756 4.82944C18.9794 4.84265 18.983 4.85672 18.9861 4.87101C18.9885 4.88098 18.9903 4.89059 18.9919 4.90022C18.9942 4.91457 18.9961 4.92941 18.9975 4.94442C18.9987 4.95588 18.9994 4.96723 18.9998 4.97858C18.9999 4.98547 19 4.99268 19 4.99993L18.9998 5.02137C18.9994 5.03223 18.9987 5.04309 18.9977 5.05392L19 4.99993C19 5.03486 18.997 5.06903 18.9914 5.10217C18.99 5.11008 18.9885 5.11821 18.9867 5.1263C18.9831 5.14296 18.9789 5.15901 18.9741 5.17474C18.9718 5.18256 18.969 5.19091 18.9661 5.1992C18.9601 5.21585 18.9537 5.23173 18.9465 5.2472C18.9432 5.25447 18.9395 5.26208 18.9357 5.26962C18.9293 5.28191 18.9228 5.2936 18.9158 5.30499C18.9109 5.31305 18.9055 5.32144 18.8999 5.32969L18.8955 5.33607C18.8818 5.35556 18.8669 5.37402 18.851 5.39134L18.8503 5.39186L14.745 9.83868C14.5458 10.0544 14.2236 10.0537 14.0253 9.83706C13.8449 9.64013 13.8291 9.33257 13.9774 9.1162L14.0267 9.05423L17.2574 5.55392L8.31252 5.55347C8.03144 5.55347 7.80359 5.30564 7.80359 4.99993Z" fill="#5CB85C"/>
<path d="M11.1964 5.00007C11.1964 5.28031 11.0049 5.51191 10.7565 5.54857L10.6875 5.55362L1.7412 5.55318L4.97322 9.0542C5.1724 9.2699 5.17309 9.62039 4.97477 9.83703C4.79448 10.034 4.51178 10.0525 4.31223 9.89218L4.25504 9.83871L0.149685 5.39263C0.12343 5.36419 0.100627 5.33342 0.0812721 5.30092C0.0758057 5.29114 0.070241 5.28114 0.0649662 5.27093C0.0601139 5.26218 0.0557289 5.25309 0.0515919 5.24391C0.0458469 5.23054 0.0402336 5.21673 0.0351372 5.20264C0.0309954 5.19178 0.0275383 5.18121 0.0243835 5.17056C0.0206347 5.15735 0.0169916 5.14328 0.0138578 5.12899C0.011528 5.11902 0.00968266 5.10941 0.00807381 5.09978C0.00581074 5.08543 0.00388432 5.07059 0.00250912 5.05558C0.00132275 5.04412 0.000608444 5.03277 0.000213623 5.02142C0.00011158 5.01453 -1.71661e-05 5.00732 -1.71661e-05 5.00007L0.000238419 4.97863C0.000628471 4.96777 0.00131035 4.95691 0.00228596 4.94608L-1.71661e-05 5.00007C-1.71661e-05 4.96514 0.00295734 4.93097 0.00864697 4.89783C0.0099659 4.88992 0.0115385 4.88179 0.013279 4.8737C0.0168943 4.85704 0.0210724 4.84099 0.0258827 4.82526C0.028244 4.81744 0.0309944 4.80909 0.0339346 4.8008C0.0398817 4.78415 0.0463457 4.76827 0.0534573 4.7528C0.0567608 4.74553 0.060461 4.73792 0.0643358 4.73038C0.0706959 4.71809 0.0772476 4.7064 0.0841751 4.69501C0.0890636 4.68695 0.0944767 4.67856 0.100128 4.67031L0.104533 4.66393C0.118244 4.64444 0.133119 4.62598 0.149044 4.60866L0.149655 4.60814L4.25501 0.16132C4.45417 -0.0544048 4.77641 -0.0536792 4.97474 0.162941C5.15505 0.359869 5.17089 0.667429 5.02265 0.883799L4.97325 0.945772L1.74255 4.44608L10.6875 4.44653C10.9686 4.44653 11.1964 4.69436 11.1964 5.00007Z" fill="#5CB85C"/>
</svg>
