<svg width="18" height="16" viewBox="0 0 18 16" fill="none" xmlns="http://www.w3.org/2000/svg">
<path fill-rule="evenodd" clip-rule="evenodd" d="M17.3077 14.7327C17.6899 14.7327 18 15.0166 18 15.3663C18 15.7161 17.6899 15.9999 17.3077 15.9999H10.6128C10.2307 15.9999 9.9205 15.7161 9.9205 15.3663C9.9205 15.0166 10.2307 14.7327 10.6128 14.7327H17.3077ZM13.0301 0.55219C13.0762 0.585137 14.6205 1.68336 14.6205 1.68336C15.1817 1.98918 15.6202 2.53575 15.7863 3.18286C15.9516 3.82321 15.8316 4.48384 15.4466 5.04224C15.4441 5.04597 15.4415 5.04965 15.4326 5.0606L15.4257 5.06905C15.3632 5.14441 15.0916 5.45872 13.7208 7.03053C13.7081 7.05113 13.6936 7.07042 13.6779 7.08917C13.6548 7.1168 13.6296 7.1422 13.6028 7.16533C13.5093 7.27307 13.4105 7.38628 13.3067 7.50531L13.0963 7.74646C12.6622 8.24402 12.1473 8.83403 11.5364 9.53383L11.2229 9.89297C10.0435 11.2439 8.53312 12.9736 6.59825 15.189C6.17456 15.6722 5.5395 15.9535 4.85737 15.9611L1.49837 16H1.48914C1.16884 16 0.890078 15.7989 0.81531 15.5126L0.0593287 12.5803C-0.0966675 11.9729 0.0584056 11.3461 0.483934 10.8595L9.17911 0.906157C9.1828 0.902777 9.18557 0.898554 9.18926 0.895174C10.1428 -0.14814 11.867 -0.301892 13.0301 0.55219ZM8.20965 4.044L1.56483 11.651C1.40699 11.8318 1.34884 12.065 1.40699 12.2888L2.03559 14.7261L4.84075 14.694C5.10751 14.6914 5.35397 14.5824 5.51735 14.3966C6.3587 13.4332 7.41613 12.2223 8.5033 10.9772L8.88794 10.5367L9.27323 10.0954C10.2928 8.92763 11.3001 7.7738 12.1429 6.80804L8.20965 4.044ZM10.2554 1.70364L9.07455 3.05391L13.0075 5.81716C13.7645 4.94936 14.2625 4.37781 14.3085 4.32333C14.4599 4.09861 14.519 3.78097 14.4396 3.47516C14.3584 3.16174 14.1451 2.89563 13.8378 2.72583C13.7722 2.68444 12.2169 1.57945 12.1689 1.54482C11.5837 1.11566 10.7298 1.19001 10.2554 1.70364Z" fill="#434343"/>
</svg>
