<svg width="15" height="13" viewBox="0 0 15 13" fill="none" xmlns="http://www.w3.org/2000/svg">
<path fill-rule="evenodd" clip-rule="evenodd" d="M11.5565 7.93736C12.9348 7.93736 14.0561 9.07302 14.0561 10.4687C14.0561 11.8643 12.9348 13 11.5565 13C10.1774 13 9.0553 11.8643 9.0553 10.4687C9.0553 9.07302 10.1774 7.93736 11.5565 7.93736ZM11.5565 9.16377C10.8416 9.16377 10.2601 9.74918 10.2601 10.4687C10.2601 11.189 10.8416 11.7736 11.5565 11.7736C12.2705 11.7736 12.8513 11.189 12.8513 10.4687C12.8513 9.74918 12.2705 9.16377 11.5565 9.16377ZM5.68696 9.8872C6.01949 9.8872 6.28937 10.1619 6.28937 10.5004C6.28937 10.8389 6.01949 11.1136 5.68696 11.1136H0.625941C0.293412 11.1136 0.023534 10.8389 0.023534 10.5004C0.023534 10.1619 0.293412 9.8872 0.625941 9.8872H5.68696ZM2.50039 0C3.8795 0 5.00078 1.13648 5.00078 2.53214C5.00078 3.9278 3.8795 5.06264 2.50039 5.06264C1.12208 5.06264 0 3.9278 0 2.53214C0 1.13648 1.12208 0 2.50039 0ZM2.50039 1.22642C1.78634 1.22642 1.20481 1.81182 1.20481 2.53214C1.20481 3.25164 1.78634 3.83623 2.50039 3.83623C3.21525 3.83623 3.79597 3.25164 3.79597 2.53214C3.79597 1.81182 3.21525 1.22642 2.50039 1.22642ZM13.0048 1.96259C13.3374 1.96259 13.6072 2.23731 13.6072 2.5758C13.6072 2.91429 13.3374 3.18901 13.0048 3.18901H7.94462C7.61209 3.18901 7.34222 2.91429 7.34222 2.5758C7.34222 2.23731 7.61209 1.96259 7.94462 1.96259H13.0048Z" fill="#5CB85C"/>
</svg>
