<svg width="22" height="22" viewBox="0 0 22 22" fill="none" xmlns="http://www.w3.org/2000/svg">
<path fill-rule="evenodd" clip-rule="evenodd" d="M11.7128 0C12.5296 0 13.3236 0.312147 13.8928 0.854689C14.461 1.40042 14.7747 2.14893 14.7507 2.90806C14.753 3.079 14.8135 3.27648 14.923 3.44954C15.1044 3.73621 15.3907 3.93794 15.7306 4.02075C16.0706 4.09932 16.4265 4.05685 16.7288 3.89016C18.189 3.11404 20.0474 3.57907 20.8813 4.92746L21.592 6.07307C21.6103 6.10386 21.6262 6.13358 21.6399 6.16437C22.3951 7.49259 21.8909 9.16481 20.4877 9.92819C20.2835 10.0375 20.1181 10.1904 20.004 10.3752C19.8272 10.6608 19.7782 11.0005 19.8671 11.3127C19.9584 11.6312 20.1763 11.8956 20.4832 12.0591C21.1756 12.4296 21.6924 13.0539 21.8989 13.7748C22.1054 14.4947 21.9924 15.2761 21.5897 15.9206L20.8322 17.0948C19.9983 18.4284 18.14 18.8902 16.6946 18.113C16.5018 18.01 16.2794 17.9538 16.0581 17.9485H16.0512C15.7215 17.9485 15.3827 18.0791 15.1363 18.3073C14.8865 18.5398 14.7496 18.8499 14.7519 19.179C14.7439 20.7387 13.3806 22 11.7128 22H10.2834C8.60759 22 7.24435 20.7323 7.24435 19.1726C7.24207 18.9805 7.18275 18.7809 7.07209 18.6078C6.89299 18.3169 6.60323 18.1088 6.26898 18.026C5.93701 17.9431 5.5731 17.9888 5.27421 18.1502C4.5578 18.5218 3.71476 18.612 2.94359 18.4103C2.17356 18.2075 1.50848 17.7149 1.11833 17.0619L0.405343 15.9184C-0.42857 14.5722 0.0676711 12.8469 1.5119 12.0697C1.92145 11.8499 2.17584 11.4401 2.17584 11.0005C2.17584 10.561 1.92145 10.1501 1.5119 9.93031C0.0665304 9.14888 -0.42857 7.41933 0.404203 6.07307L1.17765 4.89137C2.00016 3.55996 3.85964 3.09068 5.30958 3.86574C5.50693 3.9751 5.7214 4.03031 5.93929 4.03243C6.65 4.03243 7.24435 3.4867 7.25576 2.81569C7.25119 2.07567 7.56491 1.36538 8.13644 0.829207C8.71026 0.294098 9.4723 0 10.2834 0H11.7128ZM11.7128 1.59259H10.2834C9.92976 1.59259 9.59893 1.72106 9.3491 1.95251C9.10041 2.18503 8.96465 2.49399 8.96693 2.82313C8.94298 4.37537 7.57974 5.62502 5.92902 5.62502C5.3997 5.61971 4.88977 5.48699 4.44714 5.24067C3.82542 4.91154 3.01318 5.11433 2.64927 5.70359L1.87696 6.88528C1.52331 7.45649 1.74006 8.21138 2.36977 8.55219C3.30408 9.05545 3.88702 9.99402 3.88702 11.0005C3.88702 12.007 3.30408 12.9445 2.36749 13.4489C1.7412 13.7865 1.52445 14.5371 1.88722 15.1211L2.60706 16.2762C2.78502 16.5746 3.07592 16.7901 3.41245 16.8782C3.74784 16.9653 4.11746 16.9281 4.42547 16.7689C4.87836 16.5215 5.4054 16.393 5.93473 16.393C6.19597 16.393 6.45721 16.4238 6.71274 16.4875C7.48391 16.6808 8.15355 17.1607 8.55055 17.8051C8.80836 18.2096 8.95096 18.6821 8.95553 19.1641C8.95553 19.8543 9.55102 20.4074 10.2834 20.4074H11.7128C12.4418 20.4074 13.0373 19.8574 13.0407 19.179C13.0361 18.4294 13.351 17.717 13.9271 17.1808C14.4952 16.6521 15.2892 16.3346 16.0832 16.3559C16.6033 16.3675 17.1042 16.4981 17.5456 16.7317C18.1811 17.0704 18.9922 16.8687 19.3595 16.2847L20.117 15.1094C20.2858 14.8387 20.3349 14.4989 20.2447 14.1857C20.1558 13.8725 19.9322 13.6007 19.631 13.4404C18.926 13.0624 18.4229 12.453 18.2141 11.7225C18.0077 11.0058 18.1206 10.2233 18.5233 9.57888C18.7857 9.15419 19.1701 8.79639 19.631 8.55007C20.2493 8.2135 20.466 7.46074 20.1067 6.87467C20.0919 6.85131 20.0782 6.82689 20.0668 6.80141L19.3983 5.7227C19.0344 5.13344 18.2244 4.93065 17.589 5.26722C16.9022 5.64519 16.0854 5.75349 15.3006 5.56131C14.5169 5.37233 13.8598 4.91048 13.4502 4.25858C13.1878 3.85088 13.0452 3.37629 13.0407 2.8932C13.0509 2.53009 12.914 2.20414 12.6654 1.96525C12.4178 1.72743 12.0699 1.59259 11.7128 1.59259ZM11.0031 7.40457C13.133 7.40457 14.8658 9.0184 14.8658 11.0006C14.8658 12.9829 13.133 14.5946 11.0031 14.5946C8.87328 14.5946 7.14042 12.9829 7.14042 11.0006C7.14042 9.0184 8.87328 7.40457 11.0031 7.40457ZM11.0031 8.99716C9.8167 8.99716 8.8516 9.89644 8.8516 11.0006C8.8516 12.1048 9.8167 13.002 11.0031 13.002C12.1895 13.002 13.1546 12.1048 13.1546 11.0006C13.1546 9.89644 12.1895 8.99716 11.0031 8.99716Z" fill="black"/>
</svg>
