<svg width="14" height="16" viewBox="0 0 14 16" fill="none" xmlns="http://www.w3.org/2000/svg">
<path fill-rule="evenodd" clip-rule="evenodd" d="M7 0C10.8598 0 14 3.05969 14 6.82092C14 11.4445 8.52218 16 7 16C5.47782 16 0 11.4445 0 6.82092C0 3.05969 3.14024 0 7 0ZM7 1.23077C3.84194 1.23077 1.27273 3.73908 1.27273 6.82092C1.27273 10.7422 6.04461 14.5625 7 14.7659C7.95539 14.5616 12.7273 10.7413 12.7273 6.82092C12.7273 3.73908 10.1581 1.23077 7 1.23077ZM7.00085 4.10256C8.52133 4.10256 9.75842 5.29887 9.75842 6.77005C9.75842 8.24041 8.52133 9.4359 7.00085 9.4359C5.48036 9.4359 4.24327 8.24041 4.24327 6.77005C4.24327 5.29887 5.48036 4.10256 7.00085 4.10256ZM7.00085 5.33333C6.18206 5.33333 5.516 5.97744 5.516 6.77005C5.516 7.56185 6.18206 8.20513 7.00085 8.20513C7.81964 8.20513 8.4857 7.56185 8.4857 6.77005C8.4857 5.97744 7.81964 5.33333 7.00085 5.33333Z" fill="#5CB85C"/>
</svg>
