<svg width="18" height="20" viewBox="0 0 18 20" fill="none" xmlns="http://www.w3.org/2000/svg">
<path d="M4.53839 10.7699H0.740373C0.336533 10.7699 0 10.4299 0 9.9999C0 9.5799 0.336533 9.2299 0.740373 9.2299H4.53839L4.53868 4.45C4.53868 2 6.49527 0 8.89209 0H13.6662C16.0532 0 18 2 18 4.44V15.56C18 18.01 16.0532 20 13.6466 20H8.8823C6.49527 20 4.53868 18.01 4.53868 15.57L4.53839 10.7699L10.6041 10.77L9.03883 12.37C8.74534 12.67 8.74534 13.16 9.03883 13.46C9.18557 13.61 9.38123 13.68 9.57689 13.68C9.76277 13.68 9.95842 13.61 10.1052 13.46L12.9618 10.55C13.1085 10.41 13.1868 10.21 13.1868 10C13.1868 9.8 13.1085 9.6 12.9618 9.46L10.1052 6.55C9.81168 6.25 9.33232 6.25 9.03883 6.55C8.74534 6.85 8.74534 7.34 9.03883 7.64L10.6041 9.23L4.53839 9.2299V10.7699Z" fill="#5CB85C"/>
</svg>
