<svg width="22" height="21" viewBox="0 0 22 21" fill="none" xmlns="http://www.w3.org/2000/svg">
<path d="M16.0169 15.8424C16.0154 15.8421 16.0137 15.8417 16.0117 15.8411C16.0102 15.8407 16.0087 15.8402 16.007 15.8396C15.9984 15.8364 15.9836 15.8293 15.9655 15.8137C15.9289 15.782 15.868 15.7007 15.868 15.5756C15.868 15.4505 15.9289 15.3691 15.9655 15.3374C15.9836 15.3218 15.9984 15.3147 16.007 15.3116C16.0087 15.3109 16.0102 15.3104 16.0117 15.31C16.0179 15.3082 16.0214 15.3081 16.0218 15.3081C16.0222 15.3081 16.0266 15.3082 16.0346 15.3111C16.0421 15.3138 16.0558 15.3202 16.0731 15.3351C16.1076 15.3647 16.1711 15.4463 16.1711 15.5756C16.1711 15.6954 16.1133 15.7765 16.0742 15.8107C16.0552 15.8273 16.039 15.8352 16.0289 15.839C16.0262 15.8399 16.0239 15.8407 16.0218 15.8412C16.0199 15.8418 16.0183 15.8421 16.0169 15.8424ZM11.0105 15.8424C11.009 15.8421 11.0073 15.8417 11.0053 15.8411C11.0039 15.8407 11.0023 15.8402 11.0006 15.8396C10.992 15.8364 10.9772 15.8293 10.9591 15.8137C10.9225 15.782 10.8616 15.7007 10.8616 15.5756C10.8616 15.4505 10.9225 15.3691 10.9591 15.3374C10.9772 15.3218 10.992 15.3147 11.0006 15.3116C11.0023 15.3109 11.0039 15.3104 11.0053 15.31C11.0115 15.3082 11.015 15.3081 11.0154 15.3081C11.0158 15.3081 11.0202 15.3082 11.0282 15.3111C11.0357 15.3138 11.0494 15.3202 11.0667 15.3351C11.1012 15.3647 11.1648 15.4463 11.1648 15.5756C11.1648 15.6954 11.1069 15.7765 11.0678 15.8107C11.0488 15.8273 11.0326 15.8352 11.0225 15.839C11.0199 15.8399 11.0175 15.8407 11.0154 15.8412C11.0135 15.8418 11.0119 15.8421 11.0105 15.8424ZM5.99357 15.8424C5.99213 15.8421 5.99039 15.8417 5.98838 15.8411C5.98697 15.8407 5.98544 15.8402 5.98377 15.8396C5.97514 15.8364 5.96029 15.8293 5.94222 15.8137C5.90566 15.782 5.84468 15.7007 5.84468 15.5756C5.84468 15.4505 5.90566 15.3691 5.94222 15.3374C5.96029 15.3218 5.97514 15.3147 5.98376 15.3116C5.98544 15.3109 5.98697 15.3104 5.98838 15.31C5.99463 15.3082 5.99817 15.3081 5.99853 15.3081C5.9989 15.3081 6.00316 15.3082 6.01084 15.311C6.018 15.3136 6.0315 15.3198 6.04859 15.3345C6.08259 15.3637 6.14674 15.4452 6.14674 15.5756C6.14674 15.6965 6.08826 15.7776 6.04971 15.8113C6.03085 15.8277 6.01492 15.8355 6.00512 15.8391C6.00267 15.84 6.00047 15.8407 5.99853 15.8412C5.99662 15.8417 5.99496 15.8421 5.99357 15.8424ZM16.0169 12.046C16.0154 12.0458 16.0137 12.0453 16.0117 12.0447C16.0102 12.0443 16.0087 12.0438 16.007 12.0432C15.9984 12.0401 15.9836 12.033 15.9655 12.0173C15.9289 11.9857 15.868 11.9043 15.868 11.7792C15.868 11.6541 15.9289 11.5728 15.9655 11.5411C15.9836 11.5255 15.9984 11.5184 16.007 11.5152C16.0087 11.5146 16.0102 11.5141 16.0117 11.5137C16.0179 11.5118 16.0214 11.5118 16.0218 11.5118C16.0222 11.5118 16.0266 11.5119 16.0346 11.5148C16.0421 11.5175 16.0558 11.5239 16.0731 11.5387C16.1076 11.5684 16.1711 11.65 16.1711 11.7792C16.1711 11.8991 16.1133 11.9802 16.0742 12.0143C16.0552 12.031 16.039 12.0389 16.0289 12.0426C16.0262 12.0436 16.0239 12.0443 16.0218 12.0449C16.0199 12.0454 16.0183 12.0458 16.0169 12.046ZM11.0105 12.046C11.009 12.0458 11.0073 12.0453 11.0053 12.0447C11.0039 12.0443 11.0023 12.0438 11.0006 12.0432C10.992 12.0401 10.9772 12.033 10.9591 12.0173C10.9225 11.9857 10.8616 11.9043 10.8616 11.7792C10.8616 11.6541 10.9225 11.5728 10.9591 11.5411C10.9772 11.5255 10.992 11.5184 11.0006 11.5152C11.0023 11.5146 11.0039 11.5141 11.0053 11.5137C11.0115 11.5118 11.015 11.5118 11.0154 11.5118C11.0158 11.5118 11.0202 11.5119 11.0282 11.5148C11.0357 11.5175 11.0494 11.5239 11.0667 11.5387C11.1012 11.5684 11.1648 11.65 11.1648 11.7792C11.1648 11.8991 11.1069 11.9802 11.0678 12.0143C11.0488 12.031 11.0326 12.0389 11.0225 12.0426C11.0199 12.0436 11.0175 12.0443 11.0154 12.0449C11.0135 12.0454 11.0119 12.0458 11.0105 12.046ZM5.99357 12.046C5.99213 12.0458 5.9904 12.0453 5.98838 12.0447C5.98697 12.0443 5.98544 12.0438 5.98377 12.0432C5.97514 12.0401 5.96029 12.033 5.94222 12.0173C5.90566 11.9857 5.84468 11.9043 5.84468 11.7792C5.84468 11.6541 5.90566 11.5728 5.94222 11.5411C5.96029 11.5255 5.97514 11.5184 5.98377 11.5152C5.98544 11.5146 5.98697 11.5141 5.98838 11.5137C5.99463 11.5118 5.99817 11.5118 5.99853 11.5118C5.9989 11.5118 6.00316 11.5118 6.01084 11.5146C6.018 11.5173 6.0315 11.5235 6.04859 11.5382C6.08259 11.5673 6.14674 11.6489 6.14674 11.7792C6.14674 11.9001 6.08826 11.9813 6.04971 12.0149C6.03085 12.0314 6.01492 12.0391 6.00512 12.0427C6.00267 12.0436 6.00047 12.0443 5.99853 12.0449C5.99662 12.0454 5.99496 12.0458 5.99357 12.046Z" fill="#5CB85C" stroke="#5CB85C" stroke-width="2"/>
</svg>
