<svg width="14" height="13" viewBox="0 0 14 13" fill="none" xmlns="http://www.w3.org/2000/svg">
<path d="M11.1418 8.08683C10.9605 8.25855 10.8772 8.5069 10.9185 8.75047L11.5407 12.1166C11.5932 12.4019 11.47 12.6906 11.2257 12.8555C10.9864 13.0265 10.6679 13.047 10.4069 12.9102L7.30696 11.3298C7.19917 11.2737 7.07949 11.2436 6.957 11.2401H6.76733C6.70154 11.2497 6.63715 11.2702 6.57835 11.3017L3.47776 12.8897C3.32448 12.9649 3.1509 12.9916 2.98082 12.9649C2.56648 12.8883 2.29001 12.5024 2.3579 12.0953L2.98082 8.72926C3.02212 8.48364 2.93883 8.23392 2.75755 8.05946L0.230183 5.66488C0.0188106 5.46442 -0.0546798 5.16339 0.0419076 4.89178C0.135695 4.62085 0.375064 4.42313 0.664126 4.37865L4.14267 3.88537C4.40724 3.85869 4.63961 3.70133 4.75859 3.46872L6.29139 0.396816C6.32779 0.328399 6.37468 0.265456 6.43137 0.212091L6.49436 0.1642C6.52726 0.128623 6.56506 0.0992039 6.60705 0.0752581L6.68334 0.0478915L6.80232 0H7.09699C7.36015 0.0266824 7.59182 0.18062 7.7129 0.410499L9.266 3.46872C9.37799 3.69244 9.59566 3.84774 9.84693 3.88537L13.3255 4.37865C13.6194 4.4197 13.8651 4.61811 13.9624 4.89178C14.0541 5.16613 13.975 5.46716 13.7594 5.66488L11.1418 8.08683Z" fill="#5CB85C"/>
</svg>
