<svg width="22" height="21" viewBox="0 0 22 21" fill="none" xmlns="http://www.w3.org/2000/svg">
<path d="M10.9523 10.7808V11.0715L11.205 11.2153L14.9493 13.3461C14.9495 13.3462 14.9496 13.3463 14.9498 13.3464C15.1043 13.4352 15.1361 13.6047 15.06 13.7274C15.0031 13.8174 14.8957 13.877 14.7743 13.877C14.7137 13.877 14.6535 13.8623 14.5975 13.8312C14.5971 13.831 14.5967 13.8308 14.5963 13.8305L10.454 11.4718C10.4538 11.4716 10.4536 11.4715 10.4534 11.4714C10.352 11.4129 10.3023 11.3166 10.3023 11.2281V6.13767C10.3023 6.00078 10.4259 5.85017 10.6273 5.85017C10.8294 5.85017 10.9523 6.00035 10.9523 6.13767V10.7808ZM11 0.5C16.8114 0.5 21.5 5.00811 21.5 10.5C21.5 15.9919 16.8114 20.5 11 20.5C5.18857 20.5 0.5 15.9919 0.5 10.5C0.5 5.00811 5.18857 0.5 11 0.5ZM11 1.075C5.59033 1.075 1.15 5.28084 1.15 10.5C1.15 15.7192 5.59033 19.925 11 19.925C16.4097 19.925 20.85 15.7192 20.85 10.5C20.85 5.28084 16.4097 1.075 11 1.075Z" fill="#5CB85C" stroke="#5CB85C"/>
</svg>
