<svg width="15" height="15" viewBox="0 0 15 15" fill="none" xmlns="http://www.w3.org/2000/svg">
<path fill-rule="evenodd" clip-rule="evenodd" d="M10.6103 0C10.9288 0 11.1873 0.23442 11.1873 0.52326L11.1876 1.11476C12.3108 1.1846 13.2436 1.53353 13.9038 2.13357C14.6246 2.79009 15.0038 3.73405 15 4.86639V11.2313C15 13.556 13.3723 15.0002 10.753 15.0002H4.24691C1.62769 15.0002 0 13.5358 0 11.1783V4.86499C0 2.67232 1.45158 1.26485 3.81898 1.115L3.81945 0.52326C3.81945 0.23442 4.07791 0 4.39637 0C4.71483 0 4.97329 0.23442 4.97329 0.52326L4.97306 1.10164H10.033L10.0334 0.52326C10.0334 0.23442 10.2919 0 10.6103 0ZM13.8461 6.21214H1.15384V11.1783C1.15384 12.9685 2.2523 13.9537 4.24691 13.9537H10.753C12.7476 13.9537 13.8461 12.9867 13.8461 11.2313L13.8461 6.21214ZM10.924 10.6022C11.2424 10.6022 11.5009 10.8366 11.5009 11.1254C11.5009 11.4143 11.2424 11.6487 10.924 11.6487C10.6055 11.6487 10.344 11.4143 10.344 11.1254C10.344 10.8366 10.5986 10.6022 10.917 10.6022H10.924ZM7.51051 10.6022C7.82897 10.6022 8.08743 10.8366 8.08743 11.1254C8.08743 11.4143 7.82897 11.6487 7.51051 11.6487C7.19205 11.6487 6.93051 11.4143 6.93051 11.1254C6.93051 10.8366 7.18513 10.6022 7.50359 10.6022H7.51051ZM4.08991 10.6022C4.40837 10.6022 4.66683 10.8366 4.66683 11.1254C4.66683 11.4143 4.40837 11.6487 4.08991 11.6487C3.77145 11.6487 3.50914 11.4143 3.50914 11.1254C3.50914 10.8366 3.76452 10.6022 4.08298 10.6022H4.08991ZM10.924 7.89048C11.2424 7.89048 11.5009 8.1249 11.5009 8.41374C11.5009 8.70258 11.2424 8.937 10.924 8.937C10.6055 8.937 10.344 8.70258 10.344 8.41374C10.344 8.1249 10.5986 7.89048 10.917 7.89048H10.924ZM7.51051 7.89048C7.82897 7.89048 8.08743 8.1249 8.08743 8.41374C8.08743 8.70258 7.82897 8.937 7.51051 8.937C7.19205 8.937 6.93051 8.70258 6.93051 8.41374C6.93051 8.1249 7.18513 7.89048 7.50359 7.89048H7.51051ZM4.08991 7.89048C4.40837 7.89048 4.66683 8.1249 4.66683 8.41374C4.66683 8.70258 4.40837 8.937 4.08991 8.937C3.77145 8.937 3.50914 8.70258 3.50914 8.41374C3.50914 8.1249 3.76452 7.89048 4.08298 7.89048H4.08991ZM10.033 2.14816H4.97306L4.97329 2.81932C4.97329 3.10816 4.71483 3.34258 4.39637 3.34258C4.07791 3.34258 3.81945 3.10816 3.81945 2.81932L3.81904 2.164C2.09579 2.29529 1.15384 3.24272 1.15384 4.86499V5.16562H13.8461L13.8461 4.86499C13.8492 4.00336 13.5938 3.33358 13.0869 2.87312C12.6419 2.46833 11.9914 2.22658 11.1879 2.16433L11.1873 2.81932C11.1873 3.10816 10.9288 3.34258 10.6103 3.34258C10.2919 3.34258 10.0334 3.10816 10.0334 2.81932L10.033 2.14816Z" fill="#5CB85C"/>
</svg>
