<svg width="29" height="30" viewBox="0 0 29 30" fill="none" xmlns="http://www.w3.org/2000/svg">
    <path fill-rule="evenodd" clip-rule="evenodd" d="M14.5 30C22.4953 30 29 23.271 29 15C29 6.729 22.4953 0 14.5 0C6.5047 0 0 6.729 0 15C0 23.271 6.5047 30 14.5 30ZM14.5 27.75C7.70385 27.75 2.175 22.0305 2.175 15C2.175 7.9695 7.70385 2.25 14.5 2.25C21.2962 2.25 26.825 7.9695 26.825 15C26.825 22.0305 21.2962 27.75 14.5 27.75ZM14.5057 10.8061C15.3075 10.8061 15.9557 10.1356 15.9557 9.30615C15.9557 8.47665 15.3075 7.80615 14.5057 7.80615C13.7038 7.80615 13.0484 8.47665 13.0484 9.30615C13.0484 10.1356 13.6908 10.8061 14.4912 10.8061H14.5057ZM14.4914 21.819C15.0917 21.819 15.5789 21.315 15.5789 20.694V14.0655C15.5789 13.4445 15.0917 12.9405 14.4914 12.9405C13.8911 12.9405 13.4039 13.4445 13.4039 14.0655V20.694C13.4039 21.315 13.8911 21.819 14.4914 21.819Z" fill="#F75555"/>
    </svg>
    