<svg width="23" height="24" viewBox="0 0 23 24" fill="none" xmlns="http://www.w3.org/2000/svg">
<mask id="path-1-inside-1_507_2315" fill="white">
<path d="M15.2753 0.885335C15.2753 0.39681 15.7582 0 16.3553 0C16.9524 0 17.4353 0.39681 17.4353 0.885335V4.76359C17.4353 5.25212 16.9524 5.64893 16.3553 5.64893C15.7582 5.64893 15.2753 5.25212 15.2753 4.76359V0.885335ZM12.3741 19.4306C12.3105 19.4306 12.2599 19.1629 12.2599 18.8316C12.2599 18.5003 12.3105 18.2327 12.3741 18.2327H15.3296C15.3932 18.2327 15.4438 18.5003 15.4438 18.8316C15.4438 19.1629 15.3932 19.4306 15.3296 19.4306H12.3741ZM2.96672 12.5575C2.90308 12.5575 2.85254 12.2899 2.85254 11.9586C2.85254 11.6273 2.90308 11.3596 2.96672 11.3596H5.9222C5.98584 11.3596 6.03638 11.6273 6.03638 11.9586C6.03638 12.2899 5.98584 12.5575 5.9222 12.5575H2.96672ZM7.67041 12.5575C7.60677 12.5575 7.55623 12.2899 7.55623 11.9586C7.55623 11.6273 7.60677 11.3596 7.67041 11.3596H10.6259C10.6895 11.3596 10.7401 11.6273 10.7401 11.9586C10.7401 12.2899 10.6895 12.5575 10.6259 12.5575H7.67041ZM12.3741 12.5575C12.3105 12.5575 12.2599 12.2899 12.2599 11.9586C12.2599 11.6273 12.3105 11.3596 12.3741 11.3596H15.3296C15.3932 11.3596 15.4438 11.6273 15.4438 11.9586C15.4438 12.2899 15.3932 12.5575 15.3296 12.5575H12.3741ZM17.0797 12.5575C17.016 12.5575 16.9655 12.2899 16.9655 11.9586C16.9655 11.6273 17.016 11.3596 17.0797 11.3596H20.0352C20.0988 11.3596 20.1493 11.6273 20.1493 11.9586C20.1493 12.2899 20.0988 12.5575 20.0352 12.5575H17.0797ZM2.96672 15.9941C2.90308 15.9941 2.85254 15.7264 2.85254 15.3951C2.85254 15.0638 2.90308 14.7961 2.96672 14.7961H5.9222C5.98584 14.7961 6.03638 15.0638 6.03638 15.3951C6.03638 15.7264 5.98584 15.9941 5.9222 15.9941H2.96672ZM7.67041 15.9941C7.60677 15.9941 7.55623 15.7264 7.55623 15.3951C7.55623 15.0638 7.60677 14.7961 7.67041 14.7961H10.6259C10.6895 14.7961 10.7401 15.0638 10.7401 15.3951C10.7401 15.7264 10.6895 15.9941 10.6259 15.9941H7.67041ZM12.3741 15.9941C12.3105 15.9941 12.2599 15.7264 12.2599 15.3951C12.2599 15.0638 12.3105 14.7961 12.3741 14.7961H15.3296C15.3932 14.7961 15.4438 15.0638 15.4438 15.3951C15.4438 15.7264 15.3932 15.9941 15.3296 15.9941H12.3741ZM17.0797 15.9941C17.016 15.9941 16.9655 15.7264 16.9655 15.3951C16.9655 15.0638 17.016 14.7961 17.0797 14.7961H20.0352C20.0988 14.7961 20.1493 15.0638 20.1493 15.3951C20.1493 15.7264 20.0988 15.9941 20.0352 15.9941H17.0797ZM2.96672 19.4306C2.90308 19.4306 2.85254 19.1629 2.85254 18.8316C2.85254 18.5003 2.90308 18.2327 2.96672 18.2327H5.9222C5.98584 18.2327 6.03638 18.5003 6.03638 18.8316C6.03638 19.1629 5.98584 19.4306 5.9222 19.4306H2.96672ZM7.67041 19.4306C7.60677 19.4306 7.55623 19.1629 7.55623 18.8316C7.55623 18.5003 7.60677 18.2327 7.67041 18.2327H10.6259C10.6895 18.2327 10.7401 18.5003 10.7401 18.8316C10.7401 19.1629 10.6895 19.4306 10.6259 19.4306H7.67041ZM5.54224 0.885335C5.54224 0.39681 6.02515 0 6.62223 0C7.21932 0 7.70223 0.39681 7.70223 0.885335V4.76359C7.70223 5.25212 7.21932 5.64893 6.62223 5.64893C6.02515 5.64893 5.54224 5.25212 5.54224 4.76359V0.885335ZM1.19792 8.48275H21.8002V4.01864C21.8002 3.8689 21.7384 3.73226 21.6392 3.63118C21.54 3.53198 21.4034 3.47022 21.2518 3.47022H19.279C18.9477 3.47022 18.68 3.20256 18.68 2.87126C18.68 2.53996 18.9477 2.2723 19.279 2.2723H21.2537C21.7347 2.2723 22.1708 2.46883 22.4871 2.78516C22.8035 3.10148 23 3.5376 23 4.01864V9.08358V21.2555C23 21.7366 22.8035 22.1727 22.4871 22.489C22.1708 22.8053 21.7347 23.0019 21.2537 23.0019H1.74634C1.2653 23.0019 0.829183 22.8053 0.512858 22.489C0.196533 22.1708 0 21.7347 0 21.2537V9.08171V4.01864C0 3.5376 0.196533 3.10148 0.512858 2.78516C0.829183 2.46883 1.2653 2.2723 1.74634 2.2723H3.85579C4.18709 2.2723 4.45475 2.53996 4.45475 2.87126C4.45475 3.20256 4.18709 3.47022 3.85579 3.47022H1.74634C1.5966 3.47022 1.45996 3.53198 1.35889 3.63118C1.25968 3.73039 1.19792 3.86702 1.19792 4.01864V8.48275ZM21.8021 9.68254H1.19792V21.2537C1.19792 21.4034 1.25968 21.54 1.35889 21.6411C1.45809 21.7403 1.59473 21.8021 1.74634 21.8021H11.5H21.2537C21.4034 21.8021 21.54 21.7403 21.6411 21.6411C21.7403 21.5419 21.8021 21.4053 21.8021 21.2537V9.68254ZM9.43921 3.47022C9.10791 3.47022 8.84025 3.20256 8.84025 2.87126C8.84025 2.53996 9.10791 2.2723 9.43921 2.2723H13.4616C13.7929 2.2723 14.0605 2.53996 14.0605 2.87126C14.0605 3.20256 13.7929 3.47022 13.4616 3.47022H9.43921Z"/>
</mask>
<path d="M15.2753 0.885335C15.2753 0.39681 15.7582 0 16.3553 0C16.9524 0 17.4353 0.39681 17.4353 0.885335V4.76359C17.4353 5.25212 16.9524 5.64893 16.3553 5.64893C15.7582 5.64893 15.2753 5.25212 15.2753 4.76359V0.885335ZM12.3741 19.4306C12.3105 19.4306 12.2599 19.1629 12.2599 18.8316C12.2599 18.5003 12.3105 18.2327 12.3741 18.2327H15.3296C15.3932 18.2327 15.4438 18.5003 15.4438 18.8316C15.4438 19.1629 15.3932 19.4306 15.3296 19.4306H12.3741ZM2.96672 12.5575C2.90308 12.5575 2.85254 12.2899 2.85254 11.9586C2.85254 11.6273 2.90308 11.3596 2.96672 11.3596H5.9222C5.98584 11.3596 6.03638 11.6273 6.03638 11.9586C6.03638 12.2899 5.98584 12.5575 5.9222 12.5575H2.96672ZM7.67041 12.5575C7.60677 12.5575 7.55623 12.2899 7.55623 11.9586C7.55623 11.6273 7.60677 11.3596 7.67041 11.3596H10.6259C10.6895 11.3596 10.7401 11.6273 10.7401 11.9586C10.7401 12.2899 10.6895 12.5575 10.6259 12.5575H7.67041ZM12.3741 12.5575C12.3105 12.5575 12.2599 12.2899 12.2599 11.9586C12.2599 11.6273 12.3105 11.3596 12.3741 11.3596H15.3296C15.3932 11.3596 15.4438 11.6273 15.4438 11.9586C15.4438 12.2899 15.3932 12.5575 15.3296 12.5575H12.3741ZM17.0797 12.5575C17.016 12.5575 16.9655 12.2899 16.9655 11.9586C16.9655 11.6273 17.016 11.3596 17.0797 11.3596H20.0352C20.0988 11.3596 20.1493 11.6273 20.1493 11.9586C20.1493 12.2899 20.0988 12.5575 20.0352 12.5575H17.0797ZM2.96672 15.9941C2.90308 15.9941 2.85254 15.7264 2.85254 15.3951C2.85254 15.0638 2.90308 14.7961 2.96672 14.7961H5.9222C5.98584 14.7961 6.03638 15.0638 6.03638 15.3951C6.03638 15.7264 5.98584 15.9941 5.9222 15.9941H2.96672ZM7.67041 15.9941C7.60677 15.9941 7.55623 15.7264 7.55623 15.3951C7.55623 15.0638 7.60677 14.7961 7.67041 14.7961H10.6259C10.6895 14.7961 10.7401 15.0638 10.7401 15.3951C10.7401 15.7264 10.6895 15.9941 10.6259 15.9941H7.67041ZM12.3741 15.9941C12.3105 15.9941 12.2599 15.7264 12.2599 15.3951C12.2599 15.0638 12.3105 14.7961 12.3741 14.7961H15.3296C15.3932 14.7961 15.4438 15.0638 15.4438 15.3951C15.4438 15.7264 15.3932 15.9941 15.3296 15.9941H12.3741ZM17.0797 15.9941C17.016 15.9941 16.9655 15.7264 16.9655 15.3951C16.9655 15.0638 17.016 14.7961 17.0797 14.7961H20.0352C20.0988 14.7961 20.1493 15.0638 20.1493 15.3951C20.1493 15.7264 20.0988 15.9941 20.0352 15.9941H17.0797ZM2.96672 19.4306C2.90308 19.4306 2.85254 19.1629 2.85254 18.8316C2.85254 18.5003 2.90308 18.2327 2.96672 18.2327H5.9222C5.98584 18.2327 6.03638 18.5003 6.03638 18.8316C6.03638 19.1629 5.98584 19.4306 5.9222 19.4306H2.96672ZM7.67041 19.4306C7.60677 19.4306 7.55623 19.1629 7.55623 18.8316C7.55623 18.5003 7.60677 18.2327 7.67041 18.2327H10.6259C10.6895 18.2327 10.7401 18.5003 10.7401 18.8316C10.7401 19.1629 10.6895 19.4306 10.6259 19.4306H7.67041ZM5.54224 0.885335C5.54224 0.39681 6.02515 0 6.62223 0C7.21932 0 7.70223 0.39681 7.70223 0.885335V4.76359C7.70223 5.25212 7.21932 5.64893 6.62223 5.64893C6.02515 5.64893 5.54224 5.25212 5.54224 4.76359V0.885335ZM1.19792 8.48275H21.8002V4.01864C21.8002 3.8689 21.7384 3.73226 21.6392 3.63118C21.54 3.53198 21.4034 3.47022 21.2518 3.47022H19.279C18.9477 3.47022 18.68 3.20256 18.68 2.87126C18.68 2.53996 18.9477 2.2723 19.279 2.2723H21.2537C21.7347 2.2723 22.1708 2.46883 22.4871 2.78516C22.8035 3.10148 23 3.5376 23 4.01864V9.08358V21.2555C23 21.7366 22.8035 22.1727 22.4871 22.489C22.1708 22.8053 21.7347 23.0019 21.2537 23.0019H1.74634C1.2653 23.0019 0.829183 22.8053 0.512858 22.489C0.196533 22.1708 0 21.7347 0 21.2537V9.08171V4.01864C0 3.5376 0.196533 3.10148 0.512858 2.78516C0.829183 2.46883 1.2653 2.2723 1.74634 2.2723H3.85579C4.18709 2.2723 4.45475 2.53996 4.45475 2.87126C4.45475 3.20256 4.18709 3.47022 3.85579 3.47022H1.74634C1.5966 3.47022 1.45996 3.53198 1.35889 3.63118C1.25968 3.73039 1.19792 3.86702 1.19792 4.01864V8.48275ZM21.8021 9.68254H1.19792V21.2537C1.19792 21.4034 1.25968 21.54 1.35889 21.6411C1.45809 21.7403 1.59473 21.8021 1.74634 21.8021H11.5H21.2537C21.4034 21.8021 21.54 21.7403 21.6411 21.6411C21.7403 21.5419 21.8021 21.4053 21.8021 21.2537V9.68254ZM9.43921 3.47022C9.10791 3.47022 8.84025 3.20256 8.84025 2.87126C8.84025 2.53996 9.10791 2.2723 9.43921 2.2723H13.4616C13.7929 2.2723 14.0605 2.53996 14.0605 2.87126C14.0605 3.20256 13.7929 3.47022 13.4616 3.47022H9.43921Z" fill="#445668" stroke="#445668" stroke-width="2" mask="url(#path-1-inside-1_507_2315)"/>
</svg>
