<svg width="15" height="15" viewBox="0 0 15 15" fill="none" xmlns="http://www.w3.org/2000/svg">
<path fill-rule="evenodd" clip-rule="evenodd" d="M7.5 0C11.6355 0 15 2.86846 15 6.39462C15 10.7292 9.13091 15 7.5 15C5.86909 15 0 10.7292 0 6.39462C0 2.86846 3.36455 0 7.5 0ZM7.5 1.15385C4.11636 1.15385 1.36364 3.50538 1.36364 6.39462C1.36364 10.0708 6.47636 13.6523 7.5 13.8431C8.52364 13.6515 13.6364 10.07 13.6364 6.39462C13.6364 3.50538 10.8836 1.15385 7.5 1.15385ZM7.50091 3.84615C9.13 3.84615 10.4555 4.96769 10.4555 6.34692C10.4555 7.72539 9.13 8.84615 7.50091 8.84615C5.87182 8.84615 4.54636 7.72539 4.54636 6.34692C4.54636 4.96769 5.87182 3.84615 7.50091 3.84615ZM7.50091 5C6.62364 5 5.91 5.60385 5.91 6.34692C5.91 7.08923 6.62364 7.69231 7.50091 7.69231C8.37818 7.69231 9.09182 7.08923 9.09182 6.34692C9.09182 5.60385 8.37818 5 7.50091 5Z" fill="#5CB85C"/>
</svg>
