<svg width="24" height="24" viewBox="0 0 24 24" fill="none" xmlns="http://www.w3.org/2000/svg">
<path fill-rule="evenodd" clip-rule="evenodd" d="M12 0C18.6168 0 24 5.3832 24 12C24 18.6168 18.6168 24 12 24C5.3832 24 0 18.6168 0 12C0 5.3832 5.3832 0 12 0ZM12 1.8C6.3756 1.8 1.8 6.3756 1.8 12C1.8 17.6244 6.3756 22.2 12 22.2C17.6244 22.2 22.2 17.6244 22.2 12C22.2 6.3756 17.6244 1.8 12 1.8ZM16.7378 10.8164C17.4014 10.8164 17.9378 11.3528 17.9378 12.0164C17.9378 12.68 17.4014 13.2164 16.7378 13.2164C16.0742 13.2164 15.5318 12.68 15.5318 12.0164C15.5318 11.3528 16.0634 10.8164 16.7258 10.8164H16.7378ZM11.9262 10.8164C12.5898 10.8164 13.1262 11.3528 13.1262 12.0164C13.1262 12.68 12.5898 13.2164 11.9262 13.2164C11.2626 13.2164 10.7214 12.68 10.7214 12.0164C10.7214 11.3528 11.2518 10.8164 11.9154 10.8164H11.9262ZM7.11564 10.8164C7.77924 10.8164 8.31564 11.3528 8.31564 12.0164C8.31564 12.68 7.77924 13.2164 7.11564 13.2164C6.45204 13.2164 5.90964 12.68 5.90964 12.0164C5.90964 11.3528 6.44124 10.8164 7.10484 10.8164H7.11564Z" fill="black"/>
</svg>
