<svg width="15" height="15" viewBox="0 0 15 15" fill="none" xmlns="http://www.w3.org/2000/svg">
<path fill-rule="evenodd" clip-rule="evenodd" d="M10.3008 0C13.2869 0 15 1.20809 15 3.31271V13.7718C15 14.2107 14.7236 14.6057 14.2588 14.8266C13.7957 15.0482 13.2376 15.0525 12.7692 14.8367L7.52245 12.414L2.22724 14.8417C1.99836 14.9468 1.74746 15 1.49569 15C1.23599 15 0.97629 14.9432 0.74036 14.8295C0.276425 14.6086 0 14.2136 0 13.7754V3.18103C0 1.15916 1.71401 0 4.70274 0H10.3008ZM10.3008 1.07929H4.70274C2.45877 1.07929 1.3205 1.78587 1.3205 3.18103V13.7754C1.3205 13.843 1.36804 13.8797 1.40765 13.8984C1.44727 13.9185 1.50977 13.9329 1.58196 13.8998L7.20025 11.3239C7.40096 11.2326 7.64658 11.2318 7.84817 11.3247L13.418 13.8962C13.4911 13.9308 13.5536 13.915 13.5932 13.8955C13.6328 13.8761 13.6795 13.8394 13.6795 13.7718L13.6792 3.23071C13.6725 2.61144 13.5259 1.07929 10.3008 1.07929ZM10.6871 4.84134C11.0515 4.84134 11.3473 5.08311 11.3473 5.38099C11.3473 5.67887 11.0515 5.92064 10.6871 5.92064H4.24479C3.88033 5.92064 3.58454 5.67887 3.58454 5.38099C3.58454 5.08311 3.88033 4.84134 4.24479 4.84134H10.6871Z" fill="#5CB85C"/>
</svg>
