<svg width="43" height="43" viewBox="0 0 43 43" fill="none" xmlns="http://www.w3.org/2000/svg">
<circle cx="21.5" cy="21.5" r="21.5" fill="#5CB85C"/>
<path d="M18.5745 24.6552L27.2051 14.7932C27.4733 14.4867 27.8146 14.3335 28.2291 14.3335C28.6435 14.3335 28.9849 14.4867 29.253 14.7932C29.5212 15.0996 29.6553 15.4896 29.6553 15.9632C29.6553 16.4368 29.5212 16.8269 29.253 17.1333L19.5985 28.1654C19.3059 28.4997 18.9646 28.6668 18.5745 28.6668C18.1844 28.6668 17.8431 28.4997 17.5506 28.1654L13.7472 23.8194C13.4791 23.513 13.345 23.1229 13.345 22.6493C13.345 22.1757 13.4791 21.7857 13.7472 21.4793C14.0154 21.1728 14.3567 21.0196 14.7712 21.0196C15.1857 21.0196 15.527 21.1728 15.7952 21.4793L18.5745 24.6552Z" fill="white"/>
</svg>
