<svg width="15" height="15" viewBox="0 0 15 15" fill="none" xmlns="http://www.w3.org/2000/svg">
<path fill-rule="evenodd" clip-rule="evenodd" d="M7.5 0C11.6355 0 15 3.3645 15 7.5C15 11.6355 11.6355 15 7.5 15C3.3645 15 0 11.6355 0 7.5C0 3.3645 3.3645 0 7.5 0ZM7.5 1.125C3.98475 1.125 1.125 3.98475 1.125 7.5C1.125 11.0153 3.98475 13.875 7.5 13.875C11.0153 13.875 13.875 11.0153 13.875 7.5C13.875 3.98475 11.0153 1.125 7.5 1.125ZM7.2459 3.82155C7.55715 3.82155 7.8084 4.07355 7.8084 4.38405V7.70055L10.3622 9.22305C10.6284 9.3828 10.7161 9.7278 10.5571 9.9948C10.4514 10.1711 10.2647 10.2693 10.0734 10.2693C9.97515 10.2693 9.87615 10.2438 9.7854 10.1905L6.9579 8.5038C6.7884 8.4018 6.6834 8.21805 6.6834 8.02005V4.38405C6.6834 4.07355 6.9354 3.82155 7.2459 3.82155Z" fill="#5CB85C"/>
</svg>
